<svg width="79" height="44" viewBox="0 0 79 44" fill="none" xmlns="http://www.w3.org/2000/svg">
<rect width="79" height="44" rx="22" fill="#087443"/>
<path d="M22.0021 29.2493C20.9496 29.2493 20.0462 28.983 19.2919 28.4503C18.5419 27.9134 17.9645 27.1399 17.5597 26.13C17.1591 25.1158 16.9588 23.8949 16.9588 22.4673C16.9631 21.0398 17.1655 19.8253 17.5661 18.8239C17.9709 17.8182 18.5483 17.0511 19.2983 16.5227C20.0526 15.9943 20.9538 15.7301 22.0021 15.7301C23.0504 15.7301 23.9517 15.9943 24.706 16.5227C25.4602 17.0511 26.0376 17.8182 26.4382 18.8239C26.843 19.8295 27.0455 21.044 27.0455 22.4673C27.0455 23.8991 26.843 25.1222 26.4382 26.1364C26.0376 27.1463 25.4602 27.9176 24.706 28.4503C23.956 28.983 23.0547 29.2493 22.0021 29.2493ZM22.0021 27.2486C22.8203 27.2486 23.4659 26.8459 23.9389 26.0405C24.4162 25.2308 24.6548 24.0398 24.6548 22.4673C24.6548 21.4276 24.5462 20.554 24.3288 19.8466C24.1115 19.1392 23.8047 18.6065 23.4084 18.2486C23.0121 17.8864 22.5433 17.7053 22.0021 17.7053C21.1882 17.7053 20.5447 18.1101 20.0717 18.9197C19.5987 19.7251 19.3601 20.9077 19.3558 22.4673C19.3516 23.5114 19.456 24.3892 19.669 25.1009C19.8864 25.8125 20.1932 26.3494 20.5895 26.7116C20.9858 27.0696 21.4567 27.2486 22.0021 27.2486ZM41.6752 28.6548L40.3585 27.3509L44.3024 23.407H34.7207V21.5021H44.3024L40.3585 17.5646L41.6752 16.2543L47.8755 22.4545L41.6752 28.6548ZM60.5973 15.9091V29H58.2259V18.2166H58.1491L55.0874 20.1726V17.9993L58.3409 15.9091H60.5973Z" fill="#D3F8DF"/>
</svg>

